# xmcd
#
# Track frame offsets:
#	150
#	21500
#	40660
#	60202
#	80225
#	102067
#	123825
#	144237
#	164607
#	183822
#
# Disc length: 2706 seconds
#
# Revision: 0
# Processed by: cddbd v1.5.2PL0 Copyright (c) Steve Scherf et al.
# Submitted via: EZCDAudioConverter 7.1.0.1
#
DISCID=780a900a
DTITLE=邰正宵 - 找一个字代替
DYEAR=1993
DGENRE=
TTITLE0=找一个字代替
TTITLE1=九百九十九朵玫瑰
TTITLE2=情人之间的情人
TTITLE3=你是我一生飘飘荡荡的唯一
TTITLE4=A spaceman came travelling
TTITLE5=别再怪我痴情
TTITLE6=我怎么舍得你哭
TTITLE7=你眼里的神情
TTITLE8=笑看情字也难
TTITLE9=靠近一点 多情一些
EXTD=
EXTT0=
EXTT1=
EXTT2=
EXTT3=
EXTT4=
EXTT5=
EXTT6=
EXTT7=
EXTT8=
EXTT9=
PLAYORDER=
